dummy_motion.mot
version=1
nRows=34
nColumns=11
inDegrees=No
endheader
                time	         pelvis_tilt	           pelvis_tx	           pelvis_ty	       hip_flexion_l	       hip_flexion_r	        knee_angle_l	        knee_angle_r	       ankle_angle_l	       ankle_angle_r	    lumbar_extension	
          7.50150030	          0.00000000	          0.00000000	          0.00000000	          0.46670659	         -0.30958294	         -0.87298055	         -0.43555131	          0.03232056	          0.00276211	          0.43193134	
          7.50350070	          0.00000000	          0.00000000	          0.00000000	         -0.05254008	         -0.78218241	         -0.14032265	         -0.31815212	          0.42971389	          0.44240842	         -0.07475256	
          7.50550110	          0.00000000	          0.00000000	          0.00000000	          0.26338855	          0.72520496	         -1.35699057	         -0.95336468	          0.34617257	         -0.41038443	         -0.28531733	
          7.50750150	          0.00000000	          0.00000000	          0.00000000	          0.27013968	          0.77062175	         -1.40739134	         -0.97511731	         -0.44787757	          0.13112222	         -0.32029430	
          7.50950190	          0.00000000	          0.00000000	          0.00000000	         -0.42407653	          0.35219006	         -1.14192392	         -1.37463382	         -0.22663405	          0.12396706	          0.50649051	
          7.51150230	          0.00000000	          0.00000000	          0.00000000	         -0.32691405	         -0.77419167	         -0.44087929	         -1.37864835	          0.38399975	          0.45322294	          0.27372265	
          7.51350270	          0.00000000	          0.00000000	          0.00000000	          0.29582298	         -0.32139634	         -1.45633486	         -0.26883427	          0.44849808	          0.29881841	          0.47033069	
          7.51550310	          0.00000000	          0.00000000	          0.00000000	         -0.29137171	         -0.05183273	         -1.13976782	         -0.66756247	         -0.23069081	         -0.45214622	         -0.14572446	
          7.51750350	          0.00000000	          0.00000000	          0.00000000	          0.36696008	         -0.28337980	         -0.39716957	         -0.05776331	          0.48185543	         -0.09924255	          0.32435545	
          7.51950390	          0.00000000	          0.00000000	          0.00000000	         -0.80653968	         -0.52682243	         -1.51446815	         -0.22079694	         -0.40572394	          0.38270047	         -0.27968394	
          7.52150430	          0.00000000	          0.00000000	          0.00000000	          0.09791189	          0.65557259	         -1.55310762	         -1.31905373	         -0.29357551	         -0.51008698	          0.15722343	
          7.52350470	          0.00000000	          0.00000000	          0.00000000	         -0.54070626	         -0.30635404	         -0.61285570	         -0.72144127	         -0.23661935	         -0.16355577	          0.13826669	
          7.52550510	          0.00000000	          0.00000000	          0.00000000	          0.47071419	          0.52607714	         -0.94409985	         -1.51900717	          0.03064833	          0.31116336	          0.06700046	
          7.52750550	          0.00000000	          0.00000000	          0.00000000	          0.37655983	         -0.23824235	         -1.22154461	         -1.13603381	         -0.10409270	          0.05963379	          0.30566589	
          7.52950590	          0.00000000	          0.00000000	          0.00000000	          0.34081893	         -0.23620124	         -0.33941634	         -1.11100330	         -0.03868592	         -0.35384510	          0.24405364	
          7.53150630	          0.00000000	          0.00000000	          0.00000000	          0.73659924	         -0.32704820	         -0.88157362	         -0.21828390	          0.27679540	         -0.27247412	          0.27677618	
          7.53350670	          0.00000000	          0.00000000	          0.00000000	         -0.62895700	         -0.75872125	         -1.30577963	         -0.07581382	         -0.25865405	         -0.38336517	         -0.00235914	
          7.53550710	          0.00000000	          0.00000000	          0.00000000	         -0.21574146	         -0.32462426	         -0.88734103	         -1.52472411	         -0.02865606	         -0.51862548	          0.35156092	
          7.53750750	          0.00000000	          0.00000000	          0.00000000	         -0.01234963	         -0.65955421	         -1.03729864	         -0.29702559	          0.38418278	          0.00336239	          0.08102416	
          7.53950790	          0.00000000	          0.00000000	          0.00000000	         -0.10818144	         -0.80324931	         -0.03224475	         -0.90126542	         -0.15436073	         -0.27048464	         -0.42686489	
          7.54150830	          0.00000000	          0.00000000	          0.00000000	         -0.85955323	          0.06723806	         -0.58566875	         -1.53692816	          0.51988028	          0.37576262	         -0.48885259	
          7.54350870	          0.00000000	          0.00000000	          0.00000000	         -0.26095296	         -0.10724028	         -0.36973083	         -1.35463744	          0.24740501	          0.15962894	          0.50314044	
          7.54550910	          0.00000000	          0.00000000	          0.00000000	          0.70582567	         -0.61909833	         -1.12135663	         -1.54859452	         -0.19201094	          0.11928714	         -0.50026156	
          7.54750950	          0.00000000	          0.00000000	          0.00000000	         -0.60253426	         -0.56075402	         -1.27316774	         -0.39001741	          0.34779387	         -0.06539842	          0.50530512	
          7.54950990	          0.00000000	          0.00000000	          0.00000000	          0.05944115	         -0.40009357	         -0.38939830	         -1.16640183	          0.22848689	         -0.48666463	          0.01717392	
          7.55151030	          0.00000000	          0.00000000	          0.00000000	          0.01840283	         -0.33139684	         -1.15610914	         -0.30159766	          0.30268793	         -0.18139248	          0.44937966	
          7.55351070	          0.00000000	          0.00000000	          0.00000000	          0.51315265	          0.67912315	         -0.34649508	         -1.34176191	          0.20693533	          0.37531924	         -0.24078673	
          7.55551110	          0.00000000	          0.00000000	          0.00000000	          0.66490774	          0.33230154	         -0.27353331	         -0.05167677	          0.52036260	         -0.43712344	         -0.36490481	
          7.55751150	          0.00000000	          0.00000000	          0.00000000	         -0.48761705	         -0.69226182	         -0.01963082	         -0.70114010	         -0.12714021	         -0.20223701	          0.03001532	
          7.55951190	          0.00000000	          0.00000000	          0.00000000	          0.24518831	         -0.69626976	         -0.27999067	         -0.30918216	          0.15142285	          0.05459867	          0.42240868	
          7.56151230	          0.00000000	          0.00000000	          0.00000000	         -0.55690971	         -0.37985081	         -0.16081141	         -1.03904037	          0.13029977	          0.38602033	         -0.27900523	
          7.56351270	          0.00000000	          0.00000000	          0.00000000	          0.43543858	          0.78502646	         -0.72346517	         -0.50336203	         -0.51499698	         -0.21480354	         -0.12123025	
          7.56551310	          0.00000000	          0.00000000	          0.00000000	          0.36262660	          0.12409408	         -1.15903743	         -0.27084736	         -0.30369273	          0.47228782	         -0.47691081	
          7.56751350	          0.00000000	          0.00000000	          0.00000000	         -0.83005758	          0.26583300	         -0.98183379	         -0.10152766	         -0.16204593	         -0.33175669	          0.06921440	
